<svg width="200" height="200" viewBox="0 0 200 200" fill="none" xmlns="http://www.w3.org/2000/svg">
<rect width="200" height="200" rx="100" fill="white"/>
<path fill-rule="evenodd" clip-rule="evenodd" d="M97.8457 76.405C101.517 76.4015 105.139 77.2569 108.42 78.903C111.702 80.5491 114.553 82.9401 116.746 85.885C126.526 93.885 137.286 94.78 149.026 88.57L150.196 87.94C150.871 87.58 151.501 87.265 152.101 86.98C153.376 86.222 154.756 85.6559 156.196 85.3C156.684 85.1505 157.187 85.0549 157.696 85.015C159.749 84.724 161.84 84.858 163.84 85.4088C165.839 85.9596 167.704 86.9155 169.318 88.217C170.933 89.5185 172.263 91.138 173.225 92.9749C174.188 94.8117 174.763 96.8269 174.914 98.8952C175.066 100.963 174.791 103.041 174.106 104.998C173.421 106.956 172.341 108.752 170.933 110.274C169.525 111.797 167.82 113.014 165.922 113.851C164.024 114.687 161.975 115.124 159.901 115.135C155.976 115.125 152.21 113.586 149.401 110.845C137.991 104.695 127.491 105.27 117.901 112.57C115.717 116.04 112.666 118.88 109.05 120.812C105.433 122.744 101.376 123.7 97.278 123.586C93.1797 123.472 89.1818 122.292 85.6783 120.163C82.1748 118.034 79.2866 115.028 77.2983 111.443C75.31 107.857 74.2903 103.815 74.3396 99.7159C74.3889 95.6164 75.5056 91.6004 77.5796 88.0638C79.6536 84.5273 82.6133 81.5921 86.1671 79.5477C89.7208 77.5033 93.7459 76.4201 97.8457 76.405Z" fill="#E9575C"/>
<path fill-rule="evenodd" clip-rule="evenodd" d="M99.9601 25C113.547 24.9976 126.879 28.6861 138.532 35.6713C150.186 42.6565 159.723 52.6762 166.125 64.66C162.53 65.8814 159.226 67.8321 156.42 70.39C152.179 74.0522 146.725 76.0003 141.124 75.8533C135.523 75.7062 130.178 73.4746 126.135 69.595C117.135 60.985 108.41 56.685 99.9601 56.695C88.4749 56.695 77.4601 61.2575 69.3389 69.3787C61.2176 77.5 56.6551 88.5148 56.6551 100C56.6551 111.485 61.2176 122.5 69.3389 130.621C77.4601 138.743 88.4749 143.305 99.9601 143.305C108.32 143.305 116.96 139.105 125.88 130.705C129.954 126.855 135.318 124.664 140.923 124.561C146.527 124.459 151.968 126.452 156.18 130.15C158.952 132.737 162.224 134.728 165.795 136C159.442 147.612 150.128 157.336 138.801 164.183C127.473 171.031 114.535 174.759 101.3 174.989C88.066 175.218 75.0064 171.941 63.4483 165.49C51.8901 159.039 42.2451 149.644 35.4927 138.26C28.7404 126.875 25.1213 113.906 25.003 100.67C24.8847 87.4342 28.2715 74.4027 34.8193 62.8991C41.3671 51.3956 50.8427 41.8299 62.2837 35.1734C73.7247 28.517 86.7236 25.007 99.9601 25Z" fill="#2D3548"/>
</svg>
